<svg width="44" height="44" viewBox="0 0 44 44" fill="none" xmlns="http://www.w3.org/2000/svg">
<circle cx="22" cy="22" r="22" fill="url(#paint0_linear_19_1050)"/>
<path d="M17.5001 28.2342C17.2617 28.2345 17.0314 28.1478 16.8523 27.9905L10.8523 22.7405C10.7468 22.6481 10.6622 22.5342 10.6043 22.4065C10.5463 22.2787 10.5164 22.1401 10.5164 21.9998C10.5164 21.8596 10.5463 21.7209 10.6043 21.5932C10.6622 21.4655 10.7468 21.3516 10.8523 21.2592L16.8523 16.0092C17.0488 15.8373 17.3055 15.7504 17.566 15.7678C17.8266 15.7852 18.0695 15.9053 18.2414 16.1018C18.4134 16.2983 18.5002 16.555 18.4828 16.8155C18.4655 17.0761 18.3453 17.319 18.1489 17.4909L12.995 21.9998L18.1484 26.5087C18.2992 26.6406 18.4062 26.8154 18.4551 27.0096C18.504 27.2039 18.4924 27.4085 18.422 27.5961C18.3515 27.7836 18.2255 27.9452 18.0608 28.0592C17.8961 28.1732 17.7005 28.2343 17.5001 28.2342Z" fill="white"/>
<path d="M26.4999 28.2342C26.2995 28.2344 26.1038 28.1734 25.939 28.0594C25.7742 27.9454 25.6481 27.7838 25.5776 27.5963C25.5071 27.4087 25.4955 27.2041 25.5444 27.0098C25.5932 26.8154 25.7003 26.6406 25.8511 26.5087L31.005 21.9998L25.8516 17.4909C25.6551 17.319 25.535 17.0761 25.5176 16.8155C25.5002 16.555 25.5871 16.2983 25.759 16.1018C25.931 15.9053 26.1739 15.7852 26.4344 15.7678C26.6949 15.7504 26.9517 15.8373 27.1482 16.0092L33.1482 21.2592C33.2537 21.3516 33.3383 21.4655 33.3962 21.5932C33.4541 21.7209 33.4841 21.8596 33.4841 21.9998C33.4841 22.1401 33.4541 22.2787 33.3962 22.4065C33.3383 22.5342 33.2537 22.6481 33.1482 22.7405L27.1482 27.9905C26.969 28.148 26.7384 28.2347 26.4999 28.2342Z" fill="white"/>
<path d="M19.75 30.4845C19.5967 30.4844 19.4456 30.4486 19.3086 30.3798C19.1716 30.311 19.0525 30.2112 18.9609 30.0883C18.8693 29.9654 18.8077 29.8228 18.781 29.6718C18.7542 29.5209 18.7631 29.3658 18.8069 29.2189L23.3069 14.2189C23.3408 14.0916 23.3999 13.9724 23.4807 13.8683C23.5615 13.7643 23.6624 13.6776 23.7773 13.6132C23.8922 13.5489 24.0189 13.5083 24.1498 13.4938C24.2808 13.4793 24.4133 13.4912 24.5395 13.5289C24.6657 13.5665 24.7831 13.6291 24.8847 13.713C24.9863 13.7968 25.07 13.9002 25.1309 14.017C25.1919 14.1338 25.2287 14.2616 25.2393 14.3929C25.2499 14.5242 25.2341 14.6563 25.1927 14.7814L20.6927 29.7814C20.6322 29.9844 20.5077 30.1625 20.3379 30.2892C20.1681 30.4158 19.9619 30.4843 19.75 30.4845Z" fill="white"/>
<defs>
<linearGradient id="paint0_linear_19_1050" x1="-2.5" y1="-2.5" x2="44" y2="53" gradientUnits="userSpaceOnUse">
<stop stop-color="#FD5B71"/>
<stop offset="1" stop-color="#FF788B"/>
</linearGradient>
</defs>
</svg>
