<svg width="408" height="124" viewBox="0 0 408 124" fill="none" xmlns="http://www.w3.org/2000/svg">
<path fill-rule="evenodd" clip-rule="evenodd" d="M61.8499 2.75V3.64062C70.7168 4.75063 77.5999 12.3369 77.5999 21.5C77.5999 31.4253 69.5252 39.5 59.5999 39.5C49.6746 39.5 41.5999 31.4253 41.5999 21.5C41.596 17.1386 43.1826 12.9254 46.0624 9.65L45.2562 8.84375C44.8335 8.42106 44.596 7.84777 44.596 7.25C44.596 6.65223 44.8335 6.07894 45.2562 5.65625C45.6788 5.23356 46.2521 4.9961 46.8499 4.9961C47.4477 4.9961 48.021 5.23356 48.4437 5.65625L49.4346 6.65281C51.7942 5.03027 54.5086 3.99732 57.3499 3.64062V2.75C57.3499 2.15326 57.587 1.58097 58.0089 1.15901C58.4309 0.737053 59.0032 0.5 59.5999 0.5C60.1966 0.5 60.7689 0.737053 61.1909 1.15901C61.6129 1.58097 61.8499 2.15326 61.8499 2.75ZM56.7002 24.9401C57.5116 25.6243 58.5386 25.9997 59.5999 26C60.6612 25.9997 61.6883 25.6243 62.4996 24.9401C63.3109 24.2559 63.8543 23.307 64.0338 22.261C64.2133 21.215 64.0173 20.1392 63.4804 19.2237C62.9436 18.3082 62.1004 17.6119 61.0999 17.2578V10.25C61.0999 9.85218 60.9419 9.47064 60.6606 9.18934C60.3793 8.90804 59.9977 8.75 59.5999 8.75C59.2021 8.75 58.8206 8.90804 58.5392 9.18934C58.2579 9.47064 58.0999 9.85218 58.0999 10.25V17.2578C57.0994 17.6119 56.2562 18.3082 55.7194 19.2237C55.1825 20.1392 54.9865 21.215 55.166 22.261C55.3455 23.307 55.8889 24.2559 56.7002 24.9401ZM59.6 23C60.4284 23 61.1 22.3284 61.1 21.5C61.1 20.6716 60.4284 20 59.6 20C58.7715 20 58.1 20.6716 58.1 21.5C58.1 22.3284 58.7715 23 59.6 23ZM51.0797 38.771C51.2512 38.8783 51.4247 38.9828 51.6 39.0844V44.5994C51.2531 44.1654 51.0797 43.6322 51.0797 43V38.771ZM20 103C23.1333 104.333 26.8333 105 31.1 105H40.4C41.1333 105 41.7333 104.767 42.2 104.3C42.6667 103.833 42.9 103.233 42.9 102.5V93.8C42.9 93.0667 42.6667 92.4667 42.2 92C41.7333 91.5333 41.1333 91.3 40.4 91.3H32.7C30.6333 91.3 29.1667 90.6333 28.3 89.3C27.4333 87.9667 27 86.1667 27 83.9V66.1H39.5C40.2333 66.1 40.8333 65.8667 41.3 65.4C41.7667 64.9333 42 64.3333 42 63.6V55.5C42 54.7667 41.7667 54.1667 41.3 53.7C40.8333 53.2333 40.2333 53 39.5 53H27V36.5C27 35.7667 26.7667 35.1667 26.3 34.7C25.8333 34.2333 25.2333 34 24.5 34H12.9C12.2333 34 11.6333 34.2333 11.1 34.7C10.6333 35.1667 10.4 35.7667 10.4 36.5V53H2.6C1.86667 53 1.23333 53.2333 0.699999 53.7C0.233332 54.1667 0 54.7667 0 55.5V63.6C0 64.3333 0.233332 64.9333 0.699999 65.4C1.23333 65.8667 1.86667 66.1 2.6 66.1H10.4V85.3C10.4 89.9 11.2333 93.6667 12.9 96.6C14.5667 99.4667 16.9333 101.6 20 103ZM51.8797 104.3C52.3464 104.767 52.9464 105 53.6797 105H65.4797C66.1464 105 66.713 104.767 67.1797 104.3C67.713 103.833 67.9797 103.233 67.9797 102.5V55.5C67.9797 54.7667 67.713 54.1667 67.1797 53.7C66.713 53.2333 66.1464 53 65.4797 53H53.6797C52.9464 53 52.3464 53.2333 51.8797 53.7C51.413 54.1667 51.1797 54.7667 51.1797 55.5V102.5C51.1797 103.233 51.413 103.833 51.8797 104.3ZM83.5203 104.3C83.987 104.767 84.587 105 85.3203 105H97.1203C97.8536 105 98.4536 104.767 98.9203 104.3C99.4536 103.833 99.7203 103.233 99.7203 102.5V74.7C99.7203 72.4333 100.054 70.6333 100.72 69.3C101.454 67.9 102.387 66.9 103.52 66.3C104.72 65.7 105.92 65.4 107.12 65.4C108.52 65.4 109.787 65.7 110.92 66.3C112.054 66.9 112.987 67.9 113.72 69.3C114.454 70.6333 114.82 72.4667 114.82 74.8V102.5C114.82 103.233 115.054 103.833 115.52 104.3C115.987 104.767 116.587 105 117.32 105H128.92C129.654 105 130.254 104.767 130.72 104.3C131.187 103.833 131.42 103.233 131.42 102.5V74.8C131.42 72.4667 131.754 70.6333 132.42 69.3C133.154 67.9 134.087 66.9 135.22 66.3C136.42 65.7 137.62 65.4 138.82 65.4C140.287 65.4 141.587 65.7 142.72 66.3C143.854 66.9 144.754 67.9 145.42 69.3C146.087 70.6333 146.42 72.4667 146.42 74.8V102.5C146.42 103.233 146.654 103.833 147.12 104.3C147.654 104.767 148.287 105 149.02 105H160.62C161.287 105 161.854 104.767 162.32 104.3C162.854 103.833 163.12 103.233 163.12 102.5V74.1C163.12 68.9667 162.287 64.8 160.62 61.6C158.954 58.3333 156.72 55.9333 153.92 54.4C151.187 52.8 148.087 52 144.62 52C141.22 52 138.087 52.8333 135.22 54.5C132.354 56.1 130.154 58.1667 128.62 60.7C125.754 54.7667 120.487 51.8667 112.82 52C109.554 52.0667 106.72 52.8 104.32 54.2C101.92 55.5333 100.054 57.1 98.7203 58.9V55.5C98.7203 54.7667 98.487 54.1667 98.0203 53.7C97.5536 53.2333 96.9536 53 96.2203 53H85.3203C84.587 53 83.987 53.2333 83.5203 53.7C83.0536 54.1667 82.8203 54.7667 82.8203 55.5V102.5C82.8203 103.233 83.0536 103.833 83.5203 104.3ZM179.524 99.6C184.191 103.867 190.458 106 198.324 106C202.391 106 205.958 105.5 209.024 104.5C212.091 103.5 214.624 102.233 216.624 100.7C218.691 99.1 220.258 97.5 221.324 95.9C222.391 94.3 222.958 92.9333 223.024 91.8C223.091 91.1333 222.891 90.6333 222.424 90.3C222.024 89.9 221.491 89.7 220.824 89.7H208.424C207.624 89.7 207.024 89.8 206.624 90C206.291 90.1333 205.824 90.5333 205.224 91.2C204.891 91.6 204.424 92.1 203.824 92.7C203.224 93.2333 202.458 93.7333 201.524 94.2C200.658 94.6 199.558 94.8 198.224 94.8C196.424 94.8 194.891 94.3333 193.624 93.4C192.358 92.4667 191.424 91.2 190.824 89.6C190.224 88 189.891 86.2333 189.824 84.3V83.9V83.6H221.824C222.491 83.6 223.058 83.3667 223.524 82.9C224.058 82.4333 224.324 81.8333 224.324 81.1V78.7C224.324 73.5667 223.358 69 221.424 65C219.491 61 216.591 57.8333 212.724 55.5C208.924 53.1667 204.091 52 198.224 52C193.091 52 188.591 53 184.724 55C180.924 56.9333 177.924 59.8 175.724 63.6C173.591 67.3333 172.424 71.8333 172.224 77.1V78.8V80.6C172.424 89 174.858 95.3333 179.524 99.6ZM206.724 73.7H189.824V73.5C189.824 71.3667 190.158 69.5 190.824 67.9C191.491 66.3 192.424 65.0667 193.624 64.2C194.891 63.3333 196.424 62.9 198.224 62.9C200.024 62.9 201.558 63.3333 202.824 64.2C204.158 65.0667 205.124 66.3 205.724 67.9C206.391 69.5 206.724 71.3667 206.724 73.5V73.7ZM234.399 123.3C234.866 123.767 235.466 124 236.199 124H248.399C249.133 124 249.733 123.767 250.199 123.3C250.666 122.833 250.899 122.233 250.899 121.5V99.3C252.499 101.433 254.499 103.1 256.899 104.3C259.366 105.433 262.233 106 265.499 106C268.833 106 271.766 105.467 274.299 104.4C276.899 103.267 279.099 101.7 280.899 99.7C282.699 97.7 284.099 95.2667 285.099 92.4C286.099 89.5333 286.666 86.3 286.799 82.7C286.866 81.3667 286.899 80.1333 286.899 79C286.899 77.8667 286.866 76.6333 286.799 75.3C286.666 71.5667 286.066 68.2667 284.999 65.4C283.999 62.5333 282.599 60.1 280.799 58.1C278.999 56.1 276.833 54.6 274.299 53.6C271.766 52.5333 268.833 52 265.499 52C261.766 52 258.633 52.7 256.099 54.1C253.566 55.4333 251.533 57.1333 249.999 59.2V55.5C249.999 54.7667 249.733 54.1667 249.199 53.7C248.733 53.2333 248.166 53 247.499 53H236.199C235.466 53 234.866 53.2333 234.399 53.7C233.933 54.1667 233.699 54.7667 233.699 55.5V121.5C233.699 122.233 233.933 122.833 234.399 123.3ZM265.399 91.2C264.133 92.1333 262.366 92.6 260.099 92.6C258.033 92.6 256.333 92.1667 254.999 91.3C253.666 90.3667 252.666 89.2 251.999 87.8C251.333 86.3333 250.966 84.7667 250.899 83.1C250.833 81.7667 250.799 80.5 250.799 79.3C250.799 78.1 250.833 76.8667 250.899 75.6C250.966 73.8 251.299 72.1333 251.899 70.6C252.499 69.0667 253.466 67.8333 254.799 66.9C256.133 65.9 257.899 65.4 260.099 65.4C262.366 65.4 264.133 65.8667 265.399 66.8C266.666 67.7333 267.566 69 268.099 70.6C268.699 72.2 269.066 73.9667 269.199 75.9C269.333 77.9667 269.333 80.0333 269.199 82.1C269.066 84.0333 268.699 85.8 268.099 87.4C267.566 89 266.666 90.2667 265.399 91.2ZM302.685 104C305.552 105.333 308.785 106 312.385 106C314.985 106 317.252 105.667 319.185 105C321.185 104.4 322.918 103.567 324.385 102.5C325.852 101.433 327.018 100.267 327.885 99V102.5C327.885 103.233 328.118 103.833 328.585 104.3C329.052 104.767 329.652 105 330.385 105H341.985C342.652 105 343.218 104.767 343.685 104.3C344.218 103.833 344.485 103.233 344.485 102.5V72.1C344.485 69.1667 344.018 66.5 343.085 64.1C342.152 61.6333 340.718 59.5 338.785 57.7C336.918 55.9 334.452 54.5 331.385 53.5C328.318 52.5 324.618 52 320.285 52C316.152 52 312.618 52.5 309.685 53.5C306.752 54.5 304.352 55.7667 302.485 57.3C300.618 58.8333 299.218 60.4 298.285 62C297.418 63.5333 296.985 64.9 296.985 66.1C296.918 66.7 297.085 67.2333 297.485 67.7C297.885 68.1 298.452 68.3 299.185 68.3H310.385C311.452 68.3 312.285 67.8667 312.885 67C313.552 65.7333 314.452 64.7333 315.585 64C316.785 63.2667 318.318 62.9 320.185 62.9C322.852 62.9 324.685 63.5333 325.685 64.8C326.685 66.0667 327.185 67.9 327.185 70.3V71.7L314.685 73.6C308.285 74.6 303.152 76.5 299.285 79.3C295.418 82.0333 293.485 85.7667 293.485 90.5C293.485 93.4333 294.318 96.0667 295.985 98.4C297.652 100.733 299.885 102.6 302.685 104ZM322.285 93.4C320.752 94.2 319.018 94.6 317.085 94.6C315.752 94.6 314.552 94.4 313.485 94C312.418 93.5333 311.552 92.9 310.885 92.1C310.218 91.3 309.885 90.3333 309.885 89.2C309.885 87.7333 310.585 86.4667 311.985 85.4C313.452 84.2667 315.752 83.4333 318.885 82.9L327.385 81.4V82.8C327.385 85.4667 326.918 87.7 325.985 89.5C325.118 91.2333 323.885 92.5333 322.285 93.4ZM366.47 104.5C369.07 105.5 371.97 106 375.17 106C378.903 106 382.036 105.367 384.57 104.1C387.103 102.833 389.17 101.233 390.77 99.3V102.5C390.77 103.233 391.003 103.833 391.47 104.3C391.936 104.767 392.536 105 393.27 105H404.57C405.236 105 405.803 104.767 406.27 104.3C406.803 103.833 407.07 103.233 407.07 102.5V36.5C407.07 35.7667 406.803 35.1667 406.27 34.7C405.803 34.2333 405.236 34 404.57 34H392.37C391.636 34 391.036 34.2333 390.57 34.7C390.103 35.1667 389.87 35.7667 389.87 36.5V57.9C388.203 56.1667 386.17 54.7667 383.77 53.7C381.37 52.5667 378.503 52 375.17 52C371.97 52 369.07 52.5667 366.47 53.7C363.87 54.7667 361.67 56.3333 359.87 58.4C358.07 60.4667 356.67 62.9333 355.67 65.8C354.67 68.6667 354.103 71.9 353.97 75.5C353.903 76.7667 353.87 77.9333 353.87 79C353.87 80 353.903 81.1667 353.97 82.5C354.103 86.2333 354.67 89.5667 355.67 92.5C356.67 95.3667 358.07 97.8333 359.87 99.9C361.736 101.9 363.936 103.433 366.47 104.5ZM385.87 91.2C384.603 92.1333 382.836 92.6 380.57 92.6C378.37 92.6 376.603 92.1333 375.27 91.2C374.003 90.2667 373.103 89 372.57 87.4C372.036 85.8 371.703 84.0333 371.57 82.1C371.37 80.0333 371.37 77.9667 371.57 75.9C371.703 73.9667 372.036 72.2 372.57 70.6C373.103 69 374.003 67.7333 375.27 66.8C376.603 65.8667 378.37 65.4 380.57 65.4C382.703 65.4 384.436 65.8667 385.77 66.8C387.103 67.6667 388.103 68.8333 388.77 70.3C389.436 71.7 389.803 73.2333 389.87 74.9C389.936 76.1667 389.97 77.4 389.97 78.6C389.97 79.8 389.936 81.0667 389.87 82.4C389.803 84.2 389.436 85.8667 388.77 87.4C388.17 88.9333 387.203 90.2 385.87 91.2Z" fill="url(#paint0_radial_19_564)"/>
<defs>
<radialGradient id="paint0_radial_19_564" cx="0" cy="0" r="1" gradientUnits="userSpaceOnUse" gradientTransform="translate(580.074 17.4813) rotate(161.841) scale(396.275 235.412)">
<stop stop-color="white"/>
<stop offset="1" stop-color="#7012CE"/>
</radialGradient>
</defs>
</svg>
