<svg width="44" height="44" viewBox="0 0 44 44" fill="none" xmlns="http://www.w3.org/2000/svg">
<circle cx="22" cy="22" r="22" fill="#FFA656"/>
<path d="M31.8906 18.25C31.6599 18.2425 31.4308 18.292 31.2238 18.3942C31.0167 18.4964 30.8381 18.6482 30.7038 18.8359C30.6923 18.8523 30.676 18.8645 30.6572 18.871C30.6383 18.8774 30.6179 18.8777 30.5989 18.8717C30.5798 18.8658 30.5632 18.8539 30.5514 18.8379C30.5396 18.8218 30.5332 18.8024 30.5331 18.7825V17.0645C30.5331 16.0919 29.7672 15.2734 28.795 15.2504C28.5574 15.2444 28.3209 15.2861 28.0996 15.3729C27.8783 15.4596 27.6766 15.5899 27.5064 15.7558C27.3362 15.9218 27.201 16.1201 27.1086 16.3392C27.0163 16.5582 26.9687 16.7935 26.9688 17.0312V20.875C26.9688 20.8998 26.9589 20.9237 26.9413 20.9413C26.9237 20.9589 26.8999 20.9687 26.875 20.9687H17.125C17.1001 20.9687 17.0763 20.9589 17.0587 20.9413C17.0411 20.9237 17.0312 20.8998 17.0312 20.875V17.0645C17.0312 16.0919 16.2653 15.2734 15.2931 15.2504C15.0556 15.2447 14.8194 15.2865 14.5983 15.3734C14.3772 15.4603 14.1758 15.5906 14.0058 15.7565C13.8358 15.9224 13.7007 16.1207 13.6085 16.3396C13.5163 16.5585 13.4687 16.7937 13.4688 17.0312V18.7834C13.4687 18.8033 13.4623 18.8227 13.4505 18.8388C13.4387 18.8548 13.422 18.8667 13.403 18.8727C13.384 18.8786 13.3636 18.8784 13.3447 18.8719C13.3259 18.8655 13.3095 18.8532 13.2981 18.8369C13.1637 18.6486 12.9848 18.4966 12.7774 18.3942C12.57 18.2918 12.3405 18.2423 12.1094 18.25C11.3453 18.2739 10.75 18.9208 10.75 19.6853V24.3128C10.75 25.0773 11.3472 25.7242 12.1094 25.7481C12.3401 25.7556 12.5692 25.7061 12.7762 25.6038C12.9833 25.5016 13.1619 25.3499 13.2962 25.1622C13.3074 25.1449 13.3239 25.1317 13.3432 25.1248C13.3626 25.1178 13.3836 25.1173 13.4033 25.1235C13.4229 25.1297 13.4399 25.1421 13.4517 25.159C13.4636 25.1758 13.4695 25.196 13.4688 25.2165V26.9354C13.4688 27.9062 14.2347 28.7265 15.2069 28.75C15.4444 28.7557 15.6807 28.7139 15.9018 28.627C16.1229 28.54 16.3244 28.4097 16.4944 28.2438C16.6644 28.0778 16.7995 27.8795 16.8917 27.6605C16.9839 27.4415 17.0313 27.2063 17.0312 26.9687V23.125C17.0312 23.1001 17.0411 23.0763 17.0587 23.0587C17.0763 23.0411 17.1001 23.0312 17.125 23.0312H26.875C26.8999 23.0312 26.9237 23.0411 26.9413 23.0587C26.9589 23.0763 26.9688 23.1001 26.9688 23.125V26.9354C26.9688 27.9081 27.7347 28.7265 28.7069 28.7495C28.9444 28.7553 29.1806 28.7135 29.4017 28.6265C29.6228 28.5396 29.8242 28.4094 29.9942 28.2435C30.1642 28.0775 30.2993 27.8793 30.3915 27.6603C30.4837 27.4414 30.5313 27.2063 30.5312 26.9687V25.2165C30.5313 25.1966 30.5377 25.1772 30.5495 25.1612C30.5613 25.1451 30.578 25.1333 30.597 25.1273C30.616 25.1213 30.6364 25.1216 30.6553 25.128C30.6741 25.1345 30.6905 25.1468 30.7019 25.1631C30.8363 25.3513 31.0152 25.5034 31.2226 25.6058C31.43 25.7081 31.6595 25.7577 31.8906 25.75C32.6547 25.7261 33.25 25.0792 33.25 24.3147V19.6862C33.25 18.9217 32.6528 18.2748 31.8906 18.25Z" fill="white"/>
</svg>
